<svg width="100" height="100" xmlns="http://www.w3.org/2000/svg">

 <g>
  <title>background</title>
  <rect fill="none" id="canvas_background" height="402" width="582" y="-1" x="-1"/>
 </g>
 <g>
  <title>Layer 1</title>
  <path stroke="#ff9d00" transform="rotate(-4 50.725215911865256,50.807189941406264) " id="svg_1" fill="#ffff00" stroke-width="3" d="m72.039371,92.28147c-4.847178,2.746734 -19.227139,-15.995687 -24.88218,-16.480405c-5.655041,-0.64629 -23.428027,14.703107 -27.628914,10.825364c-4.200888,-3.71617 9.209638,-22.943309 7.917057,-28.436777c-1.131008,-5.493468 -21.327583,-17.772986 -19.065567,-22.943309c2.262016,-5.170323 24.88218,1.777299 29.729358,-1.131008c4.847178,-2.746734 10.179074,-25.690043 15.834115,-25.043753c5.655041,0.64629 6.139759,24.074317 10.340646,27.790487c4.200888,3.71617 27.628914,1.938871 28.921495,7.43234c1.131008,5.493468 -21.004438,13.087381 -23.266454,18.257704c-2.262016,5.170323 6.947622,26.821052 2.100444,29.567786l0,0.161573z"/>
 </g>
</svg>