    <svg viewBox="0 0 100 100" xmlns="http://www.w3.org/2000/svg" xmlns:xlink="http://www.w3.org/1999/xlink">
      <path 
        d="M50 65.1c-3 1.7 -11.9 -9.9 -15.4 -10.2 -3.5 -0.4 -14.5 9.1 -17.1 6.7 -2.6 -2.3 5.7 -14.2 4.9 -17.6 -0.7 -3.4 -13.2 -11 -11.8 -14.2 1.4 -3.2 15.4 1.1 18.4 -0.7 3 -1.7 6.3 -15.9 9.8 -15.5 3.5 0.4 3.8 14.9 6.4 17.2 2.6 2.3 17.1 1.2 17.9 4.6 0.7 3.4 -13 8.1 -14.4 11.3 -1.4 3.2 4.3 16.6 1.3 18.3z"
        stroke="orangered" 
        stroke-width="3" 
        fill="yellow"/>

    </svg>